<svg width="251" height="51" viewBox="0 0 251 51" fill="none" xmlns="http://www.w3.org/2000/svg">
<mask id="mask0_14_6999" style="mask-type:luminance" maskUnits="userSpaceOnUse" x="0" y="0" width="251" height="51">
<path d="M251 0H0V51H251V0Z" fill="white"/>
</mask>
<g mask="url(#mask0_14_6999)">
<path d="M249.901 0H1.0992C0.4954 0 0 0.4959 0 1.1003V49.8997C0 50.5041 0.4954 51 1.0992 51H3.6381C3.9013 51 4.0561 50.7366 3.9478 50.5041C2.8641 48.0866 2.508 45.4057 3.4524 42.4613C5.3566 36.6035 19.6769 33.8915 19.6769 29.4904C19.6769 25.0893 10.8215 22.5634 10.8215 18.2862C10.8215 14.0091 18.717 11.1422 28.2536 9.5615C21.8443 11.2817 13.9952 13.6682 14.1345 17.062C14.3358 21.897 28.9038 24.0046 28.9038 29.4904C28.9038 34.9763 17.0141 37.5798 22.1229 42.4613C24.8631 45.0802 30.1887 48.0556 37.2173 50.876C37.4031 50.9535 37.6198 51 37.8211 51H249.901C250.505 51 251 50.5041 251 49.8997V1.1003C251 0.4959 250.505 0 249.901 0ZM248.693 48.3655C248.693 48.536 248.554 48.691 248.368 48.691H36.2884C36.1181 48.691 35.9633 48.5515 35.9633 48.3655V2.619C35.9633 2.4485 36.1026 2.2935 36.2884 2.2935H248.368C248.538 2.2935 248.693 2.433 248.693 2.619V48.3655Z" fill="#004175"/>
<path d="M63.3344 27.1195L53.256 14.1797H46.9086V38.6646H53.5811V25.2289L64.062 38.6646H70.0224V14.1797H63.3344V27.1195Z" fill="#004175"/>
<path d="M89.4359 21.7729C88.6929 21.0291 87.733 20.4557 86.5564 20.0528C85.3799 19.6654 83.9401 19.4639 82.2371 19.4639C80.5342 19.4639 79.1873 19.6034 77.9952 19.8668C76.7877 20.1303 75.6575 20.4867 74.5893 20.9361L75.9517 25.6161C76.7877 25.2907 77.6237 25.0427 78.4287 24.8413C79.2492 24.6553 80.1472 24.5623 81.1535 24.5623C82.4384 24.5623 83.3827 24.8258 84.002 25.3682C84.6212 25.9106 84.9309 26.6699 84.9309 27.6462V27.9561C84.389 27.7702 83.7234 27.5997 82.9184 27.4447C82.1133 27.2898 81.2773 27.2123 80.3793 27.2123C79.2647 27.2123 78.2429 27.3363 77.345 27.5997C76.4316 27.8632 75.6576 28.2351 75.0229 28.7155C74.3881 29.2114 73.8772 29.8313 73.5211 30.5751C73.165 31.319 72.9792 32.1868 72.9792 33.1631V33.2251C72.9792 34.1859 73.134 35.0227 73.4746 35.751C73.7997 36.4794 74.2487 37.0838 74.8215 37.5642C75.3943 38.0601 76.06 38.432 76.8341 38.6799C77.6082 38.9434 78.4442 39.0674 79.3576 39.0674C80.6116 39.0674 81.6953 38.8504 82.5932 38.4165C83.4911 37.9826 84.2652 37.4092 84.9154 36.6808V38.6334H91.4949V27.7547C91.4949 26.422 91.3399 25.2597 91.0149 24.2679C90.7059 23.2761 90.1789 22.4238 89.4669 21.7264M85.0083 31.8149C85.0083 32.7757 84.6987 33.535 84.0949 34.0929C83.4911 34.6508 82.7016 34.9297 81.7107 34.9297C81.0296 34.9297 80.4722 34.7437 80.0388 34.3873C79.5898 34.0309 79.3731 33.5195 79.3731 32.8686V32.8066C79.3731 32.1093 79.6362 31.5359 80.1626 31.102C80.689 30.6681 81.4321 30.4511 82.4229 30.4511C82.9183 30.4511 83.3827 30.4976 83.8317 30.5906C84.2807 30.6836 84.6832 30.8076 85.0083 30.947V31.8149Z" fill="#004175"/>
<path d="M102.286 14.939H95.613V19.7275H93.368V25.0894H95.613V32.7913C95.613 35.0539 96.17 36.6656 97.301 37.6264C98.431 38.5872 99.994 39.0676 102.007 39.0676C102.936 39.0676 103.787 38.9591 104.561 38.7731C105.335 38.5872 106.017 38.3082 106.62 37.9828V32.7758C106.218 32.9618 105.815 33.1168 105.397 33.2253C104.979 33.3492 104.546 33.3957 104.097 33.3957C103.493 33.3957 103.044 33.2563 102.735 32.9618C102.425 32.6674 102.286 32.187 102.286 31.5051V25.1049H106.682V19.743H102.286V14.9545V14.939Z" fill="#004175"/>
<path d="M116.436 13.126H109.484V18.023H116.436V13.126Z" fill="#004175"/>
<path d="M116.296 19.7427H109.624V38.6798H116.296V19.7427Z" fill="#004175"/>
<path d="M132.134 19.7427L128.496 30.792L124.858 19.7427H117.875L125.43 38.8038H131.468L139.023 19.7427H132.134Z" fill="#004175"/>
<path d="M155.681 22.4085C154.907 21.4632 153.916 20.7193 152.709 20.146C151.501 19.5881 150.092 19.3091 148.467 19.3091C147.073 19.3091 145.788 19.5726 144.627 20.084C143.466 20.5954 142.46 21.3082 141.608 22.207C140.757 23.1058 140.107 24.1596 139.627 25.3529C139.162 26.5616 138.93 27.8479 138.93 29.2271V29.2891C138.93 30.7613 139.178 32.094 139.689 33.3182C140.184 34.527 140.896 35.5653 141.794 36.4176C142.692 37.2699 143.76 37.9363 144.999 38.4167C146.237 38.8971 147.6 39.1295 149.086 39.1295C150.975 39.1295 152.585 38.7731 153.932 38.0758C155.278 37.3784 156.393 36.4486 157.307 35.2708L153.637 32.2335C152.956 32.9153 152.291 33.3957 151.625 33.7057C150.959 34.0156 150.232 34.1551 149.442 34.1551C148.389 34.1551 147.507 33.8916 146.81 33.3802C146.098 32.8688 145.618 32.0785 145.355 31.0402H158.003C158.019 30.8078 158.034 30.5753 158.034 30.3429V29.6765C158.034 28.2818 157.848 26.9491 157.461 25.7093C157.074 24.4541 156.486 23.3693 155.712 22.424M145.216 27.6464C145.401 26.5926 145.773 25.7558 146.33 25.1514C146.888 24.5315 147.615 24.2216 148.498 24.2216C149.38 24.2216 150.154 24.5315 150.742 25.1514C151.315 25.7713 151.671 26.6081 151.795 27.6464H145.231H145.216Z" fill="#004175"/>
<path d="M179.042 16.4267C178.16 15.6984 177.092 15.125 175.822 14.7531C174.568 14.3656 173.16 14.1797 171.627 14.1797H161.146V38.6801H167.927V31.6756H171.286C172.803 31.6756 174.212 31.4896 175.497 31.1177C176.798 30.7458 177.897 30.1879 178.841 29.444C179.77 28.7002 180.498 27.7704 181.024 26.6856C181.55 25.5853 181.814 24.3146 181.814 22.8734V22.8114C181.814 21.4632 181.581 20.2544 181.101 19.1697C180.622 18.1004 179.94 17.1861 179.058 16.4577M175.017 23.1523C175.017 24.1286 174.677 24.919 173.98 25.4924C173.283 26.0657 172.339 26.3602 171.131 26.3602H167.911V19.8515H171.085C172.324 19.8515 173.283 20.1305 173.965 20.6728C174.646 21.2307 175.002 22.0211 175.002 23.0748V23.1523H175.017Z" fill="#004175"/>
<path d="M198.797 21.7729C198.054 21.0291 197.094 20.4557 195.917 20.0528C194.741 19.6654 193.301 19.4639 191.598 19.4639C189.895 19.4639 188.548 19.6034 187.356 19.8668C186.148 20.1303 185.018 20.4867 183.95 20.9361L185.312 25.6161C186.148 25.2907 186.984 25.0427 187.789 24.8413C188.61 24.6553 189.508 24.5623 190.514 24.5623C191.799 24.5623 192.743 24.8258 193.363 25.3682C193.982 25.9106 194.292 26.6699 194.292 27.6462V27.9561C193.75 27.7702 193.084 27.5997 192.279 27.4447C191.474 27.2898 190.638 27.2123 189.74 27.2123C188.625 27.2123 187.604 27.3363 186.706 27.5997C185.792 27.8632 185.018 28.2351 184.384 28.7155C183.749 29.2114 183.238 29.8313 182.882 30.5751C182.526 31.319 182.34 32.1868 182.34 33.1631V33.2251C182.34 34.1859 182.495 35.0227 182.835 35.751C183.16 36.4794 183.609 37.0838 184.182 37.5642C184.755 38.0601 185.421 38.432 186.195 38.6799C186.969 38.9434 187.805 39.0674 188.718 39.0674C189.972 39.0674 191.056 38.8504 191.954 38.4165C192.852 37.9826 193.626 37.4092 194.276 36.6808V38.6334H200.84V27.7547C200.84 26.422 200.685 25.2597 200.36 24.2679C200.051 23.2761 199.524 22.4238 198.812 21.7264M194.354 31.8149C194.354 32.7757 194.044 33.535 193.44 34.0929C192.836 34.6508 192.047 34.9297 191.056 34.9297C190.375 34.9297 189.817 34.7437 189.384 34.3873C188.935 34.0309 188.718 33.5195 188.718 32.8686V32.8066C188.718 32.1093 188.981 31.5359 189.508 31.102C190.034 30.6681 190.777 30.4511 191.768 30.4511C192.264 30.4511 192.728 30.4976 193.177 30.5906C193.626 30.6836 194.028 30.8076 194.354 30.947V31.8149Z" fill="#004175"/>
<path d="M211.631 14.939H204.958V19.7275H202.714V25.0894H204.958V32.7913C204.958 35.0539 205.516 36.6656 206.646 37.6264C207.776 38.5872 209.34 39.0676 211.352 39.0676C212.281 39.0676 213.132 38.9591 213.907 38.7731C214.681 38.5717 215.362 38.3082 215.966 37.9828V32.7758C215.563 32.9618 215.161 33.1168 214.743 33.2253C214.325 33.3492 213.891 33.3957 213.442 33.3957C212.838 33.3957 212.389 33.2563 212.08 32.9618C211.77 32.6674 211.631 32.187 211.631 31.5051V25.1049H216.027V19.743H211.631V14.9545V14.939Z" fill="#004175"/>
<path d="M231.23 19.3243C229.899 19.3243 228.784 19.6343 227.886 20.2386C226.988 20.843 226.245 21.5404 225.641 22.3462V13.1411H218.969V38.6798H225.641V28.4209C225.641 27.3672 225.905 26.5768 226.416 26.0344C226.926 25.492 227.592 25.2286 228.397 25.2286C229.202 25.2286 229.806 25.492 230.301 26.0344C230.781 26.5768 231.029 27.3672 231.029 28.4209V38.6798H237.701V26.2979C237.701 24.1283 237.129 22.4237 235.999 21.1839C234.868 19.9442 233.274 19.3243 231.23 19.3243Z" fill="#004175"/>
</g>
</svg>




